<svg width="100" height="100" viewBox="0 0 100 100" xmlns="http://www.w3.org/2000/svg"><g transform="translate(20,0)"><path d="M 0 10 A 10 10 0 0 1 10 0 h 40 a 10 10 0 0 1 10 10 v 80 a 10 10 0 0 1 -10 10 h -40 a 10 10 0 0 1 -10 -10 Z" fill="#000" /><rect x="5" y="10" width="50" height="80" fill="#fff"/><path d="M 25.0 7.5 a 2.5 2.5 0 1 1 0 -5.0 h 10.0 a 2.5 2.5 0 1 1 0 5.0 Z" fill="#fff" /><path d="M 25.0 97.5 a 2.5 2.5 0 1 1 0 -5.0 h 10.0 a 2.5 2.5 0 1 1 0 5.0 Z" fill="#fff" /></g><g transform="translate(100,100) rotate(180) translate(0, 6.698729810778069)scale(0.5) translate(50,50)"><polygon points="29.7,17.5 25.9,27.8 15.0,26.0 0.0,0.0 65.0,0.0 58.0,8.5 65.0,17.0 29.8,17.0" fill="#090" /><g transform="translate(100,0) rotate(120) "><polygon points="29.7,17.5 25.9,27.8 15.0,26.0 0.0,0.0 65.0,0.0 58.0,8.5 65.0,17.0 29.8,17.0" fill="#090" /></g><g transform="translate(50,86.60254037844386) rotate(240) "><polygon points="29.7,17.5 25.9,27.8 15.0,26.0 0.0,0.0 65.0,0.0 58.0,8.5 65.0,17.0 29.8,17.0" fill="#090" /></g></g></svg>
